<?xml version="1.0" encoding="utf-8"?>
<!-- Generator: Adobe Illustrator 27.5.0, SVG Export Plug-In . SVG Version: 6.00 Build 0)  -->
<svg version="1.1" xmlns="http://www.w3.org/2000/svg" xmlns:xlink="http://www.w3.org/1999/xlink" x="0px" y="0px"
	 viewBox="0 0 600 600" style="enable-background:new 0 0 600 600;" xml:space="preserve">
<g id="background">
	<rect style="fill:#FFFFFF;" width="600" height="600"/>
</g>
<g id="objects">
	<g>
		<g>
			<path style="fill:#EA3442;" d="M57.625,76.202v118h118v-118H57.625z M165.625,184.202h-98v-98h98V184.202z"/>
			<polygon style="fill:#EA3442;" points="95.653,171.731 116.625,150.759 137.597,171.731 153.153,156.174 132.182,135.202 
				153.153,114.231 137.597,98.674 116.625,119.646 95.653,98.674 80.097,114.231 101.068,135.202 80.097,156.174 			"/>
		</g>
		<g>
			<path style="fill:#EA3442;" d="M524.37,76.202h-82c-9.925,0-18,8.075-18,18v82c0,9.925,8.075,18,18,18h82c9.925,0,18-8.075,18-18
				v-82C542.37,84.277,534.295,76.202,524.37,76.202z M532.37,176.202c0,4.411-3.589,8-8,8h-82c-4.411,0-8-3.589-8-8v-82
				c0-4.411,3.589-8,8-8h82c4.411,0,8,3.589,8,8V176.202z"/>
			<path style="fill:#EA3442;" d="M514.148,104.424c-4.297-4.296-11.26-4.296-15.557,0l-15.222,15.222l-15.222-15.222
				c-4.297-4.296-11.26-4.296-15.557,0c-4.296,4.296-4.296,11.261,0,15.557l15.222,15.222l-15.222,15.222
				c-4.296,4.296-4.296,11.261,0,15.557c2.148,2.148,4.963,3.222,7.778,3.222s5.63-1.074,7.778-3.222l15.222-15.222l15.222,15.222
				c2.148,2.148,4.963,3.222,7.778,3.222s5.63-1.074,7.778-3.222c4.296-4.296,4.296-11.261,0-15.557l-15.222-15.222l15.222-15.222
				C518.444,115.685,518.444,108.72,514.148,104.424z"/>
		</g>
		<path style="fill:#EA3442;" d="M235.37,76.827v116.75h116.76V76.827H235.37z M330.28,156.177l-15.56,15.55l-20.97-20.97
			l-20.97,20.97l-15.56-15.55l20.98-20.97l-20.98-20.98l15.56-15.55l20.97,20.97l20.97-20.97l15.56,15.55l-20.97,20.98
			L330.28,156.177z"/>
		<g>
			<path style="fill:#EA3442;" d="M116.62,244.829c-34.391,0-62.37,27.979-62.37,62.38c0,34.391,27.979,62.37,62.38,62.37
				c34.391,0,62.37-27.979,62.37-62.37v-0.01C179,272.808,151.02,244.829,116.62,244.829z M169,307.209
				c0,28.877-23.493,52.37-52.38,52.37c-28.877,0-52.37-23.493-52.37-52.38c0-28.877,23.493-52.37,52.38-52.37
				c28.877,0,52.37,23.493,52.37,52.37V307.209z"/>
			<polygon style="fill:#EA3442;" points="137.597,270.676 116.625,291.647 95.653,270.676 80.097,286.232 101.068,307.204 
				80.097,328.176 95.653,343.732 116.625,322.761 137.597,343.732 153.153,328.176 132.182,307.204 153.153,286.232 			"/>
		</g>
		<g>
			<path style="fill:#EA3442;" d="M527.475,263.088c-2.727-2.727-5.721-5.213-8.898-7.39c-2.282-1.561-5.391-0.977-6.95,1.3
				c-1.561,2.278-0.979,5.39,1.3,6.951c2.67,1.828,5.186,3.917,7.48,6.212c9.895,9.884,15.344,23.036,15.344,37.042
				c0,28.883-23.497,52.38-52.38,52.38c-28.883,0-52.38-23.497-52.38-52.391c0-28.876,23.497-52.369,52.38-52.369
				c2.762,0,5-2.239,5-5s-2.238-5-5-5c-34.396,0-62.38,27.979-62.38,62.38c0,34.396,27.983,62.38,62.38,62.38
				s62.38-27.983,62.38-62.391C545.75,290.524,539.259,274.86,527.475,263.088z"/>
			<path style="fill:#EA3442;" d="M468.148,276.421c-4.297-4.296-11.26-4.296-15.557,0c-4.296,4.296-4.296,11.261,0,15.557
				l15.222,15.222l-15.222,15.222c-4.296,4.296-4.296,11.261,0,15.557c2.148,2.147,4.963,3.222,7.778,3.222s5.63-1.074,7.778-3.222
				l15.222-15.222l15.222,15.222c2.148,2.147,4.963,3.222,7.778,3.222s5.63-1.074,7.778-3.222c4.296-4.296,4.296-11.261,0-15.557
				l-15.222-15.222l15.222-15.222c4.296-4.296,4.296-11.261,0-15.557c-4.297-4.296-11.26-4.296-15.557,0l-15.222,15.222
				L468.148,276.421z"/>
		</g>
		<path style="fill:#EA3442;" d="M230.75,307.204L230.75,307.204c0,34.791,28.204,62.995,62.995,62.995h0.011
			c34.791,0,62.995-28.204,62.995-62.995v0c0-34.791-28.204-62.995-62.995-62.995h-0.011
			C258.954,244.209,230.75,272.413,230.75,307.204z M330.28,328.179l-15.56,15.55l-20.97-20.97l-20.97,20.97l-15.56-15.55
			l20.98-20.97l-20.98-20.98l15.56-15.55l20.97,20.97l20.97-20.97l15.56,15.55l-20.97,20.98L330.28,328.179z"/>
		<polygon style="fill:#EA3442;" points="146.91,417.297 116.625,447.582 86.34,417.297 63.875,439.763 94.16,470.047 
			63.875,500.332 86.34,522.797 116.625,492.513 146.91,522.797 169.375,500.332 139.09,470.047 169.375,439.763 		"/>
		<path style="fill:#EA3442;" d="M343.144,420.653c-5.81-5.808-15.226-5.808-21.036,0l-28.358,28.358l-28.358-28.358
			c-5.81-5.808-15.226-5.808-21.036,0c-5.809,5.809-5.809,15.227,0,21.036l28.358,28.358l-28.358,28.358
			c-5.809,5.809-5.809,15.227,0,21.036c2.905,2.904,6.711,4.356,10.518,4.356c3.807,0,7.613-1.453,10.518-4.356l28.358-28.358
			l28.358,28.358c2.905,2.904,6.711,4.356,10.518,4.356s7.613-1.453,10.518-4.356c5.809-5.809,5.809-15.227,0-21.036l-28.358-28.358
			l28.358-28.358C348.953,435.88,348.953,426.462,343.144,420.653z"/>
		<path style="fill:#EA3442;" d="M541.67,437.184c4.568-5.293,3.661-13.344-1.977-17.479c-5.236-3.84-12.565-2.809-16.54,2.325
			c-7.552,9.755-20.879,26.279-38.172,43.864c-13.413-14.357-23.832-27.324-30.173-35.515c-3.974-5.134-11.304-6.165-16.54-2.325h0
			c-5.638,4.135-6.545,12.186-1.977,17.479c6.772,7.847,18.084,19.891,34.822,33.826c-14.041,12.995-29.958,25.786-47.058,36.136
			c-1.901,1.151-2.48,3.633-1.248,5.482c1.089,1.634,3.242,2.202,4.994,1.315c21.736-10.998,40.113-22.359,55.494-33.23
			c13.209,10.075,29.062,20.796,47.882,31.427c2.182,1.232,4.952,0.607,6.409-1.431v0c1.58-2.21,1.055-5.261-1.142-6.86
			c-14.3-10.406-27.489-22.106-39.083-33.56C519.404,461.505,533.689,446.432,541.67,437.184z"/>
	</g>
</g>
</svg>
